<svg  enable-background="new 0 0 24 24" height="24" viewBox="0 0 24 24" width="24" xmlns="http://www.w3.org/2000/svg"><path d="m0 0h24v24h-24z" fill="none"/><path d="m0 0h24v24h-24z" fill="none"/><path d="m23 12-2.44-2.79.34-3.69-3.61-.82-1.89-3.2-3.4 1.46-3.4-1.46-1.89 3.19-3.61.81.34 3.7-2.44 2.8 2.44 2.79-.34 3.7 3.61.82 1.89 3.19 3.4-1.47 3.4 1.46 1.89-3.19 3.61-.82-.34-3.69zm-13.62 4.01-2.38-2.4c-.39-.39-.39-1.02 0-1.41l.07-.07c.39-.39 1.03-.39 1.42 0l1.61 1.62 5.15-5.16c.39-.39 1.03-.39 1.42 0l.07.07c.39.39.39 1.02 0 1.41l-5.92 5.94c-.41.39-1.04.39-1.44 0z"/></svg>